#N canvas 830 205 450 300 10;
#X obj 0 131 netreceive 9999;
#X text 45 183 App: Simon;
#X floatatom 87 154 5 0 0 0 - - -;
#X obj 239 245 print leer:;
#X obj 177 243 print;
#X obj 0 202 OSCroute /evnt /h n;
#X connect 0 0 5 0;
#X connect 0 1 2 0;
#X connect 5 0 4 0;
#X connect 5 2 3 0;
