#N canvas 1096 183 450 300 10;
#X obj 80 104 r trigger;
#X obj 238 104 r midinote;
#X obj 80 132 bng 15 250 50 0 empty empty empty 17 7 0 10 -262144 -1
-1;
#X obj 80 191 vline~;
#X obj 79 218 *~;
#X obj 79 250 dac~;
#X floatatom 236 136 5 0 0 0 - - -;
#X obj 236 168 mtof;
#X obj 236 198 osc~ 220;
#X msg 82 161 1 1 0 \, 0 10 100;
#X connect 0 0 2 0;
#X connect 1 0 6 0;
#X connect 2 0 9 0;
#X connect 3 0 4 0;
#X connect 4 0 5 0;
#X connect 4 0 5 1;
#X connect 6 0 7 0;
#X connect 7 0 8 0;
#X connect 8 0 4 1;
#X connect 9 0 3 0;
